<?xml version="1.0" encoding="UTF-8" standalone="no"?>
<svg
   xmlns:dc="http://purl.org/dc/elements/1.1/"
   xmlns:cc="http://creativecommons.org/ns#"
   xmlns:rdf="http://www.w3.org/1999/02/22-rdf-syntax-ns#"
   xmlns:svg="http://www.w3.org/2000/svg"
   xmlns="http://www.w3.org/2000/svg"
   xmlns:sodipodi="http://sodipodi.sourceforge.net/DTD/sodipodi-0.dtd"
   xmlns:inkscape="http://www.inkscape.org/namespaces/inkscape"
   inkscape:version="1.0 (4035a4fb49, 2020-05-01)"
   sodipodi:docname="logoModifiedSvg.svg"
   viewBox="0 0 640.64001 690.56"
   height="690.56"
   width="640.64001"
   id="svg10"
   version="1.1">
  <metadata
     id="metadata16">
    <rdf:RDF>
      <cc:Work
         rdf:about="">
        <dc:format>image/svg+xml</dc:format>
        <dc:type
           rdf:resource="http://purl.org/dc/dcmitype/StillImage" />
        <dc:title></dc:title>
      </cc:Work>
    </rdf:RDF>
  </metadata>
  <defs
     id="defs14" />
  <sodipodi:namedview
     inkscape:current-layer="layer2"
     inkscape:window-maximized="1"
     inkscape:window-y="0"
     inkscape:window-x="0"
     inkscape:cy="357.84777"
     inkscape:cx="306.78667"
     inkscape:zoom="2"
     showgrid="false"
     id="namedview12"
     inkscape:window-height="1387"
     inkscape:window-width="2560"
     inkscape:pageshadow="2"
     inkscape:pageopacity="0"
     guidetolerance="10"
     gridtolerance="10"
     objecttolerance="10"
     borderopacity="1"
     bordercolor="#666666"
     pagecolor="#ffffff" />
  <g
     sodipodi:insensitive="true"
     style="display:inline"
     inkscape:label="background"
     id="layer1"
     inkscape:groupmode="layer">
    <rect
       y="-0.091985315"
       x="0.44588339"
       height="691.44934"
       width="639.62598"
       id="rect865"
       style="fill:#000010;fill-opacity:0.631403;stroke:none;stroke-width:1.00214" />
  </g>
  <g
     style="display:inline"
     id="g18"
     inkscape:label="Image"
     inkscape:groupmode="layer">
    <path
       inkscape:export-ydpi="96"
       inkscape:export-xdpi="96"
       id="path22"
       d="m 123.85244,391.39602 c -0.72087,-0.21638 -1.0315,-0.51957 -1.0315,-1.00683 0,-0.65283 0.64787,-1.23819 2.81181,-2.54049 6.06606,-3.65072 11.68519,-8.79416 17.26634,-15.8047 l 1.38475,-1.7394 -0.30359,-1.65238 c -0.62378,-3.39518 -0.73032,-4.65592 -0.72989,-8.63656 3.6e-4,-2.86608 0.0937,-4.75698 0.31348,-6.34924 1.64048,-11.88351 6.87233,-20.59165 14.72213,-24.50421 2.48133,-1.23676 4.53029,-1.51854 5.25102,-0.72214 0.17411,0.19238 0.39723,1.1161 0.576,2.38464 0.41604,2.95218 0.26066,7.5649 -0.36703,10.89591 -1.46487,7.77368 -5.47865,16.51525 -11.67893,25.43537 l -1.62168,2.33306 0.33609,1.07986 c 1.1662,3.74701 2.85994,6.74862 5.27687,9.35157 0.57669,0.62106 1.04852,1.23556 1.04852,1.36554 0,0.96837 -1.86018,1.97381 -3.87522,2.09459 l -1.42624,0.0855 -1.31554,-1.36331 c -1.44972,-1.50235 -2.84495,-3.5088 -3.85732,-5.54709 l -0.65985,-1.32853 -1.44306,1.60064 c -2.09257,2.32108 -5.43965,5.58385 -7.49595,7.30714 -4.04081,3.38643 -9.07759,6.65512 -11.04433,7.16738 -1.18096,0.30761 -1.39326,0.31692 -2.13688,0.0937 z m 28.64347,-34.19217 c 3.34138,-6.34446 5.38097,-12.7985 5.90475,-18.6849 0.20635,-2.31898 0.0944,-5.17009 -0.20295,-5.17009 -0.28054,0 -2.71352,2.74795 -3.55905,4.01981 -2.43922,3.6691 -4.1239,8.4668 -5.06526,14.42507 -0.32089,2.03103 -0.56686,8.79551 -0.36804,10.12137 l 0.13237,0.88271 1.00585,-1.70854 c 0.55321,-0.93971 1.52176,-2.68814 2.15233,-3.88543 z m 53.14283,26.3838 c -1.59141,-0.24604 -3.23925,-0.82654 -5.11462,-1.80176 -6.93404,-3.60588 -12.66219,-12.01019 -14.71171,-21.58494 -0.44754,-2.09082 -0.48617,-2.60328 -0.48568,-6.44383 0,-3.6657 0.0507,-4.40274 0.41399,-6.0696 0.74042,-3.39731 2.15137,-7.36345 3.76876,-10.59379 1.64177,-3.27904 3.32298,-5.12975 5.69279,-6.26673 1.28223,-0.61519 1.46496,-0.65276 3.17461,-0.65276 1.64396,0 1.90623,0.0485 2.7968,0.5173 3.10054,1.6321 5.62358,5.80634 8.35976,13.83081 1.29631,3.80176 3.44669,11.78497 3.44669,12.79573 0,0.66951 -0.54475,1.41275 -1.40692,1.91954 -0.7273,0.42752 -1.06377,0.50593 -2.17128,0.50593 -1.95398,0 -2.00514,-0.0753 -3.14334,-4.62588 -1.64244,-6.56647 -3.96394,-13.43834 -5.65998,-16.75402 -0.9279,-1.81398 -2.53086,-3.74494 -3.10883,-3.74494 -1.07679,0 -4.40981,6.78858 -5.62018,11.44696 -0.96232,3.7038 -1.073,8.31906 -0.28883,12.04521 0.53446,2.5397 1.8379,6.34903 2.98412,8.72121 3.20267,6.62815 9.06247,12.14807 13.04309,12.28657 1.65716,0.0576 2.60254,-0.34487 3.93511,-1.67547 1.93112,-1.92829 3.23852,-4.9796 4.23404,-9.88186 0.24414,-1.20221 0.58972,-2.36696 0.78018,-2.62964 0.90707,-1.25098 3.76363,-1.83393 4.88967,-0.99785 0.68159,0.50609 0.72866,1.17164 0.23534,3.32829 -1.91263,8.36177 -5.87602,14.17841 -10.82342,15.88434 -1.43502,0.49481 -3.65808,0.68269 -5.22016,0.44118 z m 21.33711,-10.75988 c -1.0442,-0.57911 -4.4319,-8.18544 -6.67119,-14.97871 -1.7487,-5.30502 -3.80517,-12.86533 -4.69049,-17.24393 -1.00359,-4.9636 -1.26136,-9.31023 -0.62888,-10.60553 0.50694,-1.03821 1.83761,-1.65621 3.98126,-1.84897 0.99219,-0.0892 1.24676,-0.0511 1.6056,0.24058 0.42311,0.34387 0.42418,0.3543 0.13605,1.32451 -0.40481,1.36318 -0.36383,2.78265 0.1709,5.91747 1.00819,5.91048 3.01401,13.6157 5.42637,20.84503 1.36072,4.07779 2.9668,8.25401 3.17433,8.25401 0.18442,0 0.1075,0.27084 1.82895,-6.43994 1.75148,-6.82786 2.51754,-9.22504 3.70824,-11.60386 0.87842,-1.75495 0.94814,-1.83898 1.94397,-2.3426 1.19718,-0.60546 3.28568,-0.84516 3.79449,-0.43549 0.42645,0.34337 0.97131,1.49509 3.2423,6.85357 3.85225,9.08948 6.35296,13.80413 8.42776,15.88906 1.44046,1.4475 1.77516,1.50489 3.49466,0.59929 1.17274,-0.61763 1.49321,-0.70596 2.56132,-0.70596 1.39092,0 2.02722,0.31409 2.02722,1.00067 0,0.55921 -0.62694,1.13266 -2.25953,2.06675 -2.19073,1.25343 -3.18455,1.54068 -5.36337,1.55014 -1.80786,0.008 -1.97397,-0.0239 -3.14735,-0.60154 -3.43924,-1.69312 -6.15809,-5.75473 -9.82156,-14.67214 -0.7887,-1.91981 -1.49353,-3.43003 -1.56627,-3.35603 -0.0727,0.074 -0.70613,2.42782 -1.40752,5.23074 -1.6089,6.42951 -2.27161,8.46054 -3.73435,11.44454 -1.25688,2.56411 -1.70988,3.078 -3.16631,3.59185 -0.94943,0.33497 -2.48641,0.34824 -3.0666,0.0265 z M 104.55712,372.6799 c -0.91933,-0.44447 -0.89268,-0.76118 0.55461,-6.59249 2.24594,-9.04909 2.69112,-11.67271 2.70785,-15.95842 0.008,-2.04538 -0.0806,-3.37112 -0.29991,-4.48938 -0.38002,-1.93754 -0.98624,-3.94604 -1.19104,-3.94604 -0.0831,0 -0.95739,0.83921 -1.94283,1.86488 -1.98972,2.071 -3.1754,3.68328 -6.200446,8.43148 -1.12775,1.77015 -2.25981,3.43701 -2.51567,3.70415 -1.14884,1.19942 -4.06569,1.76711 -4.96118,0.96555 -0.38339,-0.34316 -0.39967,-0.46104 -0.3007,-2.17688 0.13794,-2.3913 0.61387,-5.64375 2.03071,-13.87762 2.13802,-12.42497 2.48888,-15.53716 2.48484,-22.04092 l -0.003,-4.53517 0.75925,-0.7306 c 1.27768,-1.22945 3.58743,-1.59986 4.591256,-0.73632 l 0.50899,0.43787 -0.0165,4.86828 c -0.022,6.49667 -0.53737,11.19818 -2.412796,22.01123 -0.38936,2.24491 -0.69,4.10119 -0.66809,4.12507 0.0219,0.0239 0.60534,-0.61013 1.2965,-1.4089 1.475376,-1.70508 3.738286,-3.71403 5.573776,-4.94823 2.21758,-1.49111 2.61309,-1.6532 4.05339,-1.66109 1.63507,-0.009 1.86241,0.17634 2.88461,2.3512 1.5907,3.38441 2.15236,6.24364 2.13813,10.8844 -0.0146,4.77254 -0.52379,7.87366 -2.90387,17.68716 -0.96166,3.96512 -1.07534,4.30288 -1.62656,4.83283 -1.02503,0.98547 -3.42007,1.48011 -4.54149,0.93796 z m 183.85003,-0.91507 c -1.13368,-0.52991 -5.97264,-9.22783 -8.68099,-15.60396 -0.60395,-1.42183 -1.38223,-3.00397 -1.72949,-3.51585 -0.44667,-0.65834 -0.62257,-1.10953 -0.60122,-1.54195 0.0169,-0.34125 -0.45646,-2.05367 -1.07152,-3.87659 -2.27794,-6.75144 -3.02115,-10.64457 -2.88841,-15.13027 0.0947,-3.19925 0.32876,-4.2962 1.3587,-6.36644 1.06221,-2.1351 2.72562,-3.68866 5.32124,-4.96982 2.67031,-1.31801 4.39864,-1.76371 6.87864,-1.77385 3.04476,-0.0125 4.74072,0.84097 5.74813,2.89248 0.48183,0.98119 0.50922,1.16636 0.48934,3.30697 -0.0254,2.73732 -0.46034,5.007 -1.64249,8.572 -1.50314,4.53295 -5.56425,11.98921 -7.68529,14.11023 l -0.6991,0.69911 0.57951,1.41597 c 0.31873,0.77878 1.19868,2.35475 1.95547,3.50215 1.8038,2.73487 2.99635,4.85668 4.50849,8.02163 1.36985,2.86713 3.27658,7.69589 3.27658,8.29787 0,0.51369 -0.72978,1.21894 -1.70998,1.65255 -1.02881,0.45509 -2.75825,0.61128 -3.40761,0.30777 z m -5.21077,-31.70392 c 3.31247,-6.60839 5.07589,-14.25072 3.83694,-16.62862 -0.46811,-0.89845 -1.29193,-1.25637 -2.46147,-1.06937 -2.32733,0.37207 -4.34336,2.9133 -4.93235,6.2173 -0.33349,1.87074 -0.32832,5.51008 0.0111,7.76185 0.24907,1.65258 1.40897,6.44635 1.65677,6.84731 0.13349,0.216 0.5994,-0.55559 1.88906,-3.12847 z m -21.45998,25.83907 c -0.55899,-0.30331 -1.24097,-1.64225 -3.04338,-5.97503 -1.44318,-3.46924 -2.48933,-5.7141 -3.33677,-7.16002 -0.36911,-0.62978 -0.64652,-1.31724 -0.61648,-1.5277 0.0384,-0.26922 0.42723,-0.56957 1.31181,-1.01346 1.4826,-0.74395 3.4179,-0.97691 4.14696,-0.49921 0.54222,0.35527 2.09142,3.3709 3.93545,7.6607 1.73674,4.0402 2.43835,5.47523 2.94411,6.02172 0.78466,0.84788 -0.1896,1.99268 -2.12476,2.49672 -1.33864,0.34869 -2.57016,0.34725 -3.21694,-0.003 z M 72.138704,361.38123 c -1.47989,-0.52746 -2.71438,-2.27046 -3.21562,-4.54019 -0.34349,-1.55538 -0.294,-6.11267 0.0897,-8.25401 0.64221,-3.58463 1.71727,-6.905 2.50946,-7.75057 0.94005,-1.00341 4.18495,-1.45719 5.02046,-0.70208 0.51415,0.46466 0.48642,0.73758 -0.23407,2.30463 -1.2775,2.77854 -1.92603,5.84084 -1.91667,9.05053 0.007,2.29621 0.33365,4.5215 0.79557,5.41479 0.38739,0.74912 0.63387,0.62059 1.99093,-1.03814 2.16352,-2.64446 3.57291,-5.66493 4.11607,-8.82112 0.37407,-2.17367 0.24423,-6.09603 -0.3783,-11.42863 -0.31449,-2.69389 -0.61762,-6.12623 -0.67361,-7.62744 l -0.10182,-2.72945 0.57762,-0.48604 c 1.51085,-1.2713 5.04831,-1.38448 8.60771,-0.2754 2.39548,0.74642 2.91249,1.51834 1.70748,2.54935 -0.92287,0.78959 -2.391,1.2592 -3.7211,1.19023 -1.03539,-0.0537 -1.13637,-0.0266 -1.13556,0.30389 5.4e-4,0.19955 0.29293,2.64854 0.64989,5.4422 1.25741,9.84092 0.85018,14.29065 -1.74896,19.11075 -3.16255,5.86494 -9.0875,9.6595 -12.93913,8.2867 z m -14.43992,-6.62396 c -0.69021,-0.16967 -1.45412,-0.92274 -1.45412,-1.43349 0,-0.17733 0.2493,-1.09114 0.55401,-2.03071 0.73585,-2.26905 1.35331,-4.90562 1.70127,-7.26449 0.37323,-2.53015 0.37166,-7.01322 -0.003,-9.24186 -0.70837,-4.21201 -2.68151,-8.14991 -4.08347,-8.14991 -0.54337,0 -1.77008,0.83344 -3.03345,2.06094 -2.15716,2.09594 -2.2817,2.34365 -3.49586,6.95295 -1.77732,6.74722 -4.5099,14.51939 -5.4974,15.63601 -0.64367,0.72784 -1.69922,1.10148 -3.12412,1.10587 -1.03509,0.003 -1.38541,-0.0705 -1.76872,-0.37199 -0.66946,-0.52659 -0.62013,-1.22874 0.22309,-3.17553 1.49811,-3.45879 4.00623,-11.17576 3.66882,-11.28823 -0.52787,-0.17597 -1.10457,-0.83259 -1.10457,-1.25768 0,-0.26545 0.66254,-1.58245 1.52198,-3.02539 l 1.52199,-2.5553 1.035,-4.16185 c 3.46383,-13.92845 6.48401,-21.36444 11.16675,-27.49363 2.30862,-3.02173 5.4407,-6.15524 6.89434,-6.89749 1.67966,-0.85764 2.92989,-0.68858 4.26817,0.57709 2.67891,2.5336 3.87523,5.95789 3.653,10.45609 -0.15635,3.16455 -1.18562,7.81689 -1.9099,8.6328 -0.88199,0.9936 -3.3744,1.35798 -4.51823,0.66056 -0.8723,-0.53186 -0.90717,-1.02479 -0.25266,-3.57143 0.79186,-3.08105 1.05566,-5.58805 0.79389,-7.54454 -0.21031,-1.57176 -0.89793,-3.59439 -1.26341,-3.71621 -0.28662,-0.0956 -2.3575,2.37374 -3.74703,4.46789 -2.96304,4.46556 -5.09135,9.48966 -7.38112,17.42385 -0.58864,2.03966 -1.05198,3.72626 -1.02965,3.748 0.0223,0.0218 0.65156,-0.16564 1.3983,-0.41642 1.19205,-0.40032 1.59043,-0.44703 3.26531,-0.38289 1.64061,0.0628 2.05997,0.14623 2.99606,0.59586 1.65005,0.79257 2.77161,2.0603 3.96338,4.4799 1.01196,2.05454 1.5499,3.81071 1.91785,6.26109 0.27404,1.82495 0.23797,6.85234 -0.0655,9.13166 -0.44671,3.35501 -1.76492,8.61845 -2.57274,10.27258 -0.56591,1.15878 -2.65319,1.90542 -4.23785,1.5159 z m 196.883126,-13.1375 c -1.00088,-0.45145 -1.05858,-0.72276 -1.04536,-4.91489 0.0102,-3.20509 0.0751,-4.1028 0.40933,-5.65778 1.58421,-7.36961 5.7672,-12.96571 11.7037,-15.65744 2.13267,-0.967 4.1383,-0.65129 4.92167,0.77475 0.3409,0.62059 0.34324,0.67979 0.0511,1.29255 -0.25197,0.52836 -0.60117,0.78893 -1.97075,1.47053 -2.05923,1.02484 -2.47559,1.31395 -4.03661,2.80279 -3.70271,3.53148 -5.62833,9.2018 -5.30098,15.60953 0.10552,2.06546 0.0837,2.31957 -0.24519,2.85079 -0.72416,1.16971 -3.26663,1.97956 -4.48686,1.42917 z m 55.55692,-14.44567 c -4.47306,-0.70415 -9.43644,-3.08412 -12.4136,-5.95239 -1.15171,-1.10959 -1.34814,-1.61375 -0.93183,-2.39164 0.27922,-0.5217 1.6278,-1.23829 2.72036,-1.4455 1.57091,-0.29792 2.08558,-0.10551 3.62088,1.35361 2.88814,2.74483 5.93309,4.27983 9.36781,4.72243 2.63497,0.33954 4.60517,-1.65002 4.60517,-4.65042 0,-1.52015 -0.57543,-2.67043 -2.04327,-4.08437 -1.71972,-1.65659 -2.24653,-2.00072 -6.75495,-4.41284 -4.40897,-2.35889 -5.58568,-3.15003 -7.11171,-4.78134 -1.20371,-1.2868 -2.29121,-3.25606 -2.29121,-4.149 0,-1.18179 1.91479,-2.26949 4.95845,-2.81664 2.94878,-0.53009 5.73448,0.12419 10.06808,2.36471 1.7241,0.89139 2.18921,1.21255 2.23621,1.54413 0.0956,0.67436 -0.41995,1.23625 -1.72274,1.87761 -0.97095,0.47799 -1.4434,0.60071 -2.31776,0.60202 -1.00543,0.002 -1.23205,-0.0792 -2.68201,-0.95438 -1.66409,-1.0045 -3.21531,-1.74044 -3.36116,-1.5946 -0.16075,0.16076 1.80447,1.93027 3.15853,2.84397 0.74052,0.4997 2.89572,1.75901 4.78932,2.79847 1.89359,1.03946 3.95178,2.23422 4.57375,2.65503 1.75077,1.18454 3.14472,2.6794 3.81178,4.0877 0.52623,1.11104 0.58376,1.39637 0.57783,2.86651 -0.0171,4.23037 -2.69654,7.95491 -6.60168,9.17656 -1.3822,0.43238 -4.57,0.60582 -6.25625,0.34037 z m -136.9775,-0.18649 c -11.33176,-0.67314 -21.75466,-2.17826 -34.01377,-4.91173 -23.55592,-5.25236 -42.251796,-12.62976 -57.596656,-22.72764 -12.06672,-7.94069 -22.32547,-17.92364 -30.54934,-29.72811 -0.97474,-1.39914 -1.47201,-2.27689 -1.43496,-2.53289 0.0836,-0.57756 1.49293,-1.36277 3.01594,-1.68032 1.96247,-0.40918 2.26249,-0.27744 3.54705,1.55756 1.60742,2.29621 5.00073,6.78242 6.37247,8.42491 10.13585,12.1364 22.95876,22.14144 37.552326,29.30016 22.67491,11.1229 51.46856,18.32649 79.09336,19.78758 4.4606,0.23592 16.30955,0.12514 20.13617,-0.18824 14.18196,-1.16147 26.19804,-3.63633 39.27457,-8.08908 24.2774,-8.26682 49.49593,-23.36558 74.34545,-44.51184 1.82858,-1.55608 3.63221,-3.01201 4.00807,-3.23541 0.80991,-0.48138 3.11182,-0.87882 4.0599,-0.70097 1.30013,0.2439 0.99384,0.67989 -2.63979,3.75778 -18.94381,16.04646 -35.79348,27.48289 -53.65106,36.41473 -6.2875,3.14483 -9.54586,4.62297 -14.87535,6.74815 -16.66596,6.64573 -33.17825,10.46685 -52.15445,12.06908 -4.04759,0.34176 -20.15583,0.50373 -24.48993,0.24628 z m -109.796456,-6.0828 c -0.40776,-0.18567 -0.24104,-0.57236 0.68242,-1.58278 2.66935,-2.9207 6.9962,-5.17599 11.0486,-5.75888 2.0481,-0.2946 5.33454,-0.12066 7.07785,0.37462 0.74166,0.21069 1.42127,0.42808 1.51025,0.48307 0.29315,0.18119 -0.60094,0.92359 -1.71364,1.42296 -1.55066,0.69589 -2.79623,0.76669 -4.7735,0.27134 -3.10469,-0.7778 -4.74531,-0.24717 -7.50602,2.42768 -1.47798,1.43201 -1.92455,1.75785 -2.75255,2.00839 -1.04323,0.31565 -3.19018,0.52809 -3.57341,0.3536 z M 9.0335558,304.13956 c -0.17461,-0.10814 -0.31747,-0.38468 -0.31747,-0.61454 0,-0.22984 1.22979,-4.4911 2.7328602,-9.46949 9.33897,-30.93187 28.679238,-95.70506 28.599768,-95.78452 -0.0353,-0.0353 -0.67091,0.16901 -1.41258,0.45391 -3.8827,1.49155 -8.979798,2.89504 -13.350188,3.67598 -1.96668,0.35144 -2.96504,0.41691 -6.41108,0.42039 -4.67467,0.005 -6.10762,-0.24154 -8.66042,-1.48853 -2.3904802,-1.1677 -4.9450802,-4.17134 -4.9450802,-5.81431 0,-1.45369 3.19206,-2.70588 4.9865002,-1.95613 0.49133,0.2053 0.74399,0.51157 1.20934,1.46599 1.01805,2.08795 2.83657,3.45386 5.5956,4.20289 1.55772,0.42289 5.27001,0.41727 7.52838,-0.0115 3.53194,-0.67044 9.616028,-2.53501 14.547468,-4.45832 l 2.32336,-0.90613 4.33557,-14.47134 c 4.95377,-16.53479 12.1048,-40.2104 15.95866,-52.83594 1.44614,-4.73765 2.61442,-8.62593 2.59618,-8.64064 -0.0183,-0.0147 -0.99229,0.28904 -2.16456,0.675 -6.57137,2.16355 -13.52141,3.34791 -20.81655,3.54737 -9.270148,0.25347 -17.968688,-1.09277 -25.033298,-3.8743 -5.09522,-2.00612 -11.9697302,-6.03751 -14.3437602,-8.41155 -2.34056004,-2.34055 -1.77588004,-3.98147 1.55678,-4.52387 1.7106,-0.27841 2.93196,0.27036 2.75164,1.23635 -0.0672,0.36001 0.18219,0.59361 1.75812,1.6467 5.7921202,3.87053 8.9386302,5.61112 13.0195302,7.20217 4.34375,1.69352 8.60984,2.77854 13.578928,3.45357 2.79276,0.37939 9.53266,0.43007 12.42637,0.0934 5.73525,-0.66719 11.85353,-2.20604 16.95075,-4.2634 l 1.53118,-0.61803 2.87058,-9.31849 c 3.87203,-12.56944 8.64314,-27.86431 13.23421,-42.42523 8.78823,-27.87261 10.15911,-31.8173 12.98693,-37.3698 3.60435,-7.07723 7.881856,-11.29672 12.701726,-12.52943 1.80693,-0.46214 4.71953,-0.45963 6.48231,0.006 0.76259,0.20125 1.33869,0.26954 1.44218,0.17095 0.0948,-0.0903 0.45169,-0.16417 0.79311,-0.16417 0.59677,0 0.61064,0.0153 0.35879,0.39455 -0.25096,0.37797 -0.20606,0.43196 1.06791,1.28404 3.61913,2.42062 5.23886,6.53241 5.44861,13.83169 0.21061,7.32923 -1.86927,19.44237 -5.47744,31.9004 -6.89984,23.82324 -22.578606,43.08422 -43.993276,54.04467 l -2.6275,1.34481 -1.96264,6.42333 c -6.81013,22.28812 -20.80969,68.76717 -20.80969,69.0889 0,0.24018 5.14608,-2.32428 9.41695,-4.69276 10.33161,-5.7296 20.87244,-12.6427 29.22268,-19.1654 6.68694,-5.22343 15.144706,-13.07686 18.174196,-16.87559 0.94732,-1.18787 2.68758,-3.73976 2.68758,-3.94104 0,-0.0475 -0.28571,-0.25494 -0.63492,-0.46098 -0.95345,-0.56255 -0.87806,-1.2012 0.33238,-2.81557 0.53202,-0.70957 1.40593,-1.89415 1.94202,-2.63241 1.0877,-1.49786 2.09755,-2.11771 3.77357,-2.31621 2.20916,-0.26164 2.7595,0.54527 2.18832,3.20857 -0.10952,0.51067 -0.15771,0.96989 -0.1071,1.02051 0.15853,0.15852 3.49779,-0.80386 5.1585,-1.48668 2.17903,-0.89594 4.97788,-2.3821 8.84394,-4.69602 2.7715,-1.65881 3.46574,-1.99554 4.59057,-2.22652 1.95658,-0.40178 3.48203,-0.0675 3.48203,0.76295 0,0.69986 -5.75565,8.79009 -13.87439,19.50206 -8.22432,10.85127 -11.31063,15.11671 -14.83227,20.49896 -5.94322,9.08324 -9.983236,17.29003 -12.502346,25.39695 -2.38719,7.68236 -3.50334,17.22213 -2.41945,20.67898 0.21051,0.6714 0.55919,1.24312 1.06915,1.75308 1.30838,1.30838 2.70456,1.28487 5.40599,-0.091 3.329676,-1.69588 8.211686,-5.12493 12.599706,-8.84984 6.40773,-5.43943 16.39394,-15.55453 27.216,-27.56729 2.52521,-2.80304 4.76103,-5.17218 4.96849,-5.26475 0.26229,-0.11703 0.69428,-0.94089 1.4179,-2.70405 5.58861,-13.61719 14.16583,-28.82638 22.60702,-40.08694 4.47872,-5.97463 7.65809,-9.31332 10.11687,-10.62383 1.37175,-0.73114 3.12433,-0.9349 3.8653,-0.44939 0.99576,0.65244 2.79267,5.40739 2.79639,7.39973 0,0.37415 0.0475,0.68028 0.10407,0.68028 0.0565,0 0.37939,-0.21097 0.71744,-0.46882 1.30503,-0.99538 3.91213,-1.32945 4.64623,-0.59535 0.34239,0.34238 0.3754,0.52662 0.28582,1.59505 -0.542,6.46493 -9.5887,32.08833 -16.6051,47.03144 -0.78244,1.6664 -0.96108,2.2648 -1.27263,4.26306 -0.53934,3.45926 -0.57334,3.76384 -0.73629,6.59459 -0.42699,7.41788 1.14038,13.59852 3.44852,13.59852 1.77602,0 7.08927,-4.05127 9.52856,-7.2654 0.67318,-0.88702 0.87483,-1.42671 1.96212,-5.25167 3.53133,-12.4229 8.10955,-27.87499 11.79773,-39.81879 1.23239,-3.99095 2.49821,-8.23587 2.81297,-9.43315 1.39019,-5.28811 3.54699,-11.08369 4.38812,-11.79146 1.45374,-1.22325 4.86275,-1.33857 5.15495,-0.17439 0.0609,0.24261 -0.6803,2.80104 -1.89611,6.54489 -2.89673,8.92001 -3.38394,10.57592 -2.98274,10.13754 0.0913,-0.0998 0.64561,-0.95692 1.23179,-1.90477 2.72389,-4.40458 6.01184,-8.62159 9.43411,-12.09989 2.74693,-2.79191 3.63846,-3.32245 5.81803,-3.46233 1.15001,-0.0738 1.34787,-0.0384 1.68793,0.30162 0.21188,0.21188 0.38458,0.5281 0.3838,0.7027 -0.003,0.58204 -0.89168,4.60554 -1.46872,6.64688 -1.19059,4.21185 -2.13808,6.7315 -7.20424,19.15824 -4.52623,11.10231 -6.38971,18.64817 -6.15274,24.91444 0.15574,4.1181 1.11001,6.73817 3.54984,9.74664 2.14034,2.63918 4.06536,3.584 5.71106,2.80306 1.05189,-0.49914 3.2059,-2.45276 4.4778,-4.0612 3.20745,-4.05617 7.16888,-11.77469 10.30043,-20.06955 1.55691,-4.12389 4.2428,-12.21887 5.1162,-15.41957 1.3814,-5.06235 2.36123,-10.85112 2.36123,-13.94995 0,-1.22062 0.0186,-1.2714 0.70522,-1.92456 1.49132,-1.41866 4.57841,-1.46062 5.10735,-0.0694 0.2333,0.61362 -0.06,3.81848 -0.65396,7.14571 -1.77789,9.95949 -5.07387,20.59228 -9.40783,30.34958 -1.63212,3.67451 -4.4017,9.12833 -5.63779,11.10187 -4.35349,6.95076 -9.15702,10.61864 -14.30529,10.92326 -3.2642,0.19313 -5.73401,-0.8158 -8.27951,-3.38222 -2.31954,-2.33858 -3.79643,-5.10995 -4.54089,-8.52094 -1.64459,-7.5353 0.59152,-17.07426 8.65806,-36.93412 1.78671,-4.39892 3.18572,-8.08645 3.1003,-8.17187 -0.11924,-0.11925 -2.77181,3.82208 -4.41815,6.56473 -1.92019,3.19887 -4.54469,8.29347 -6.3416,12.31014 -1.9369,4.32959 -3.46844,8.10285 -3.60796,8.88893 -0.29441,1.65876 -1.81287,7.57757 -2.57714,10.04544 -1.57501,5.08574 -3.83409,10.46375 -5.74127,13.66775 -0.54687,0.91871 -1.37165,2.90717 -2.39871,5.78292 -0.8609,2.4105 -1.69076,4.57428 -1.84416,4.8084 -0.7235,1.10421 -4.17388,1.96116 -5.19703,1.29077 -0.40808,-0.26739 -0.48325,-0.2421 -1.59214,0.53562 -1.54491,1.08353 -3.59461,2.10787 -5.25446,2.62594 -1.06729,0.33312 -1.77201,0.4224 -3.35025,0.42446 -1.89594,0.002 -2.06103,-0.0281 -3.21236,-0.59462 -1.7862,-0.87888 -2.90169,-2.32703 -3.79881,-4.93164 -0.49747,-1.44432 -0.87527,-4.00801 -0.87612,-5.94515 -3.6e-4,-0.92291 -0.0619,-1.67759 -0.13679,-1.67711 -0.0748,0 -0.52177,0.56267 -0.99322,1.24928 -4.69797,6.84194 -9.92117,11.24439 -14.46287,12.19026 -1.60837,0.33495 -3.90279,0.14121 -5.1586,-0.43561 -2.23241,-1.0254 -4.38853,-3.91632 -5.09922,-6.837 -0.69504,-2.85643 -0.4905,-7.33032 0.5264,-11.51356 l 0.43958,-1.8083 -1.02746,1.08325 c -0.5651,0.5958 -2.75304,2.91974 -4.86207,5.16432 -4.5476,4.83988 -13.99515,14.21156 -16.93716,16.80114 -5.76382,5.07337 -11.30829,9.00289 -15.8408,11.22681 -3.620686,1.77653 -5.369356,2.28828 -8.194906,2.39827 -1.93865,0.0755 -2.29499,0.0402 -3.25614,-0.32223 -4.66919,-1.76072 -5.66404,-8.08066 -3.16424,-20.10127 1.82519,-8.7767 5.44411,-17.59452 11.09163,-27.02581 3.554476,-5.93593 8.402126,-12.86139 16.266296,-23.23837 5.12323,-6.76023 10.89715,-14.56233 10.89846,-14.72669 5.4e-4,-0.0616 -0.8338,0.29522 -1.85399,0.79297 -3.71828,1.81418 -7.86146,3.19629 -10.51725,3.50843 -0.55734,0.0655 -1.08326,0.1701 -1.16872,0.23244 -0.0855,0.0623 -0.61272,0.80723 -1.1717,1.65531 -3.52316,5.34527 -10.63035,12.57119 -18.847706,19.16256 -13.16177,10.55743 -29.82786,20.92335 -44.44465,27.64355 -1.1474,0.52751 -2.10472,0.97205 -2.12738,0.98781 -0.0227,0.0158 -4.19939,13.9422 -9.28161,30.9476 -8.583308,28.72023 -17.370358,58.02885 -21.213268,70.75537 -0.8917,2.95307 -1.71945,5.55265 -1.83943,5.77685 -0.36021,0.67305 -2.06677,1.33573 -3.63015,1.40964 -0.7823602,0.037 -1.4995402,-0.0194 -1.6816002,-0.13214 z M 152.36486,206.54392 c 1.29706,-0.69194 2.9878,-2.19591 4.36944,-3.88675 2.48197,-3.03743 6.38972,-9.23211 9.51262,-15.07969 l 1.74973,-3.27635 0.71824,-3.52641 c 1.1912,-5.84866 3.33475,-14.05002 4.7103,-18.02199 0.20409,-0.58932 0.37106,-1.13464 0.37106,-1.21183 0,-0.0772 -0.26476,-0.0644 -0.58837,0.0284 -0.3236,0.0928 -1.04729,0.16874 -1.6082,0.16874 -1.14939,0 -1.97578,-0.47349 -1.97578,-1.13204 0,-0.45841 0.92257,-2.18035 3.62137,-6.75915 3.56366,-6.04614 5.55327,-10.47371 6.25309,-13.91533 0.47435,-2.3328 0.26534,-6.58475 -0.37458,-7.62017 -0.62258,-1.00735 -10.22016,12.84874 -16.61314,23.98449 -9.03782,15.74275 -14.94207,30.69599 -15.9213,40.32268 -0.42861,4.21359 0.7005,8.26212 2.68602,9.63105 0.70773,0.48795 1.41443,0.80978 1.81966,0.82867 0.13569,0.006 0.70712,-0.23413 1.26984,-0.53432 z M 76.428204,108.27425 c 7.82668,-4.95087 15.64462,-12.24464 21.54094,-20.09666 7.865336,-10.47413 12.232076,-20.49633 15.966106,-36.64417 2.56642,-11.09853 3.45097,-17.31812 3.18822,-22.41757 -0.20635,-4.00491 -0.75165,-6.26108 -2.17088,-8.98207 -0.7134,-1.36775 -0.78011,-1.43762 -1.42381,-1.491 l -0.67535,-0.056 0.10771,-0.78581 c 0.10708,-0.78127 0.10174,-0.79049 -0.92676,-1.59772 -1.05865,-0.8309 -2.00337,-1.22466 -2.93069,-1.22152 -2.10627,0.007 -5.69199,3.69428 -8.28986,8.52434 -3.054706,5.67942 -8.320706,20.98063 -16.450876,47.8007 -2.33657,7.70794 -11.46426,37.40735 -11.9775,38.97203 l -0.16853,0.5138 1.03885,-0.58436 c 0.57137,-0.32139 1.99896,-1.19168 3.17243,-1.93398 z m 178.730236,96.52697 c -3.33897,-0.80713 -7.27077,-3.69772 -9.47137,-6.96323 -4.64623,-6.89458 -4.60445,-17.43431 0.12584,-31.74619 5.37263,-16.25535 11.97889,-27.23438 19.29469,-32.06608 2.61525,-1.72723 4.49779,-2.41708 6.92247,-2.53671 3.05186,-0.15058 5.2612,0.58831 6.85549,2.29273 1.80609,1.93086 2.41323,3.97993 2.25302,7.60378 -0.21577,4.88006 -2.13035,9.64932 -5.92564,14.76095 -1.21729,1.63949 -1.53239,1.94924 -2.33358,2.2939 -1.092,0.46976 -3.34645,0.70108 -4.07129,0.41774 -0.28454,-0.11122 -0.49838,-0.33333 -0.49773,-0.51696 0,-0.17707 0.59999,-1.1201 1.33189,-2.09562 4.66529,-6.2181 6.56166,-12.04801 5.4058,-16.61883 -0.97456,-3.85385 -2.53583,-5.54674 -4.55705,-4.94117 -1.85753,0.55653 -4.89671,3.14132 -7.04372,5.99061 -3.06655,4.06961 -7.82772,13.48218 -10.24083,20.24557 -3.61449,10.13056 -5.43647,19.85771 -4.8736,26.01928 0.48526,5.31229 1.95376,8.74858 4.90731,11.48311 1.35998,1.25913 3.40827,2.44217 5.07926,2.93364 3.96657,1.16664 7.67313,-1.26116 13.79934,-9.0386 7.61158,-9.66314 8.93193,-11.18703 10.10369,-11.66124 0.77584,-0.31398 0.801,-0.34843 0.70159,-0.96059 -0.25056,-1.54313 -0.32191,-8.19465 -0.11012,-10.26633 0.93128,-9.10918 4.33392,-18.46798 10.15867,-27.94078 4.68201,-7.61434 8.76442,-12.0413 12.78546,-13.86452 3.72702,-1.68992 7.82067,-1.87173 10.07675,-0.44752 0.86515,0.54614 1.73795,1.69125 2.02868,2.66156 l 0.20863,0.69636 h 1.24113 1.24113 v 3.68683 c 0,13.21966 -2.05637,27.49703 -5.40008,37.4925 -0.5091,1.52189 -0.80708,2.7237 -0.78714,3.17462 0.089,2.01458 1.90517,8.47012 3.36825,11.97285 2.15176,5.15141 5.4079,9.15208 8.27106,10.16226 0.65947,0.23268 0.72853,0.21978 1.38519,-0.25887 0.8402,-0.61244 1.95666,-1.81437 2.7275,-2.93639 l 0.57265,-0.83351 -1.10752,-0.78105 c -6.87378,-4.84751 -11.91939,-13.41291 -12.42597,-21.09423 -0.0982,-1.4892 -0.0779,-1.62093 0.31487,-2.03897 0.54935,-0.58476 2.04766,-1.1346 3.49621,-1.28301 1.71505,-0.17571 1.86331,-0.0451 2.01507,1.77457 0.34644,4.15398 2.04614,8.81928 4.60244,12.63251 1.91066,2.85017 5.25096,6.33995 5.83088,6.09183 1.23402,-0.52794 1.96651,-0.68642 3.50856,-0.75907 1.52196,-0.0717 1.76871,-0.0436 1.76871,0.20158 0,0.1567 -0.39971,0.97954 -0.88824,1.82854 -0.6373,1.10751 -0.8295,1.59087 -0.68027,1.71083 0.53576,0.43075 3.26669,1.66647 4.65243,2.10521 5.04069,1.59587 9.02089,0.17462 12.52163,-4.47124 3.80913,-5.05509 4.50619,-11.05981 2.14135,-18.44647 -1.29071,-4.03159 -3.42645,-8.2773 -7.82912,-15.56372 -5.46542,-9.04532 -7.04096,-11.92101 -8.33921,-15.22093 -2.33273,-5.9293 -2.23591,-11.63935 0.28422,-16.76576 0.57958,-1.17895 1.07947,-1.86355 2.12337,-2.90795 1.49154,-1.49226 2.63253,-2.19139 4.2742,-2.61899 1.36855,-0.35646 4.0594,-0.35686 5.42636,-0.001 4.26927,1.11201 8.03255,5.38335 9.5852,10.87926 0.29344,1.03869 0.37397,2.01503 0.44234,5.36358 0.12205,5.97679 -0.46328,10.48858 -2.32754,17.94086 -0.98538,3.93902 -1.09954,4.14229 -2.62882,4.68085 l -0.91961,0.32384 0.88993,1.53712 c 6.05855,10.46465 7.64015,18.30877 5.12037,25.39494 -3.64615,10.25378 -15.71942,15.74134 -26.51628,12.05218 l -1.88714,-0.64481 -1.03326,0.9463 c -1.40939,1.29083 -2.26806,1.89946 -3.70911,2.6291 -1.74432,0.88319 -2.99258,1.1602 -5.2081,1.15578 -3.08853,-0.006 -5.07651,-0.90889 -7.47668,-3.39505 -2.32317,-2.40638 -4.6075,-6.71245 -6.31212,-11.89869 l -0.40708,-1.23852 -0.64619,0.96641 c -3.96256,5.92629 -9.85311,9.75693 -15.00659,9.75883 -4.12697,0.002 -6.91064,-1.96361 -9.14237,-6.45406 -0.39124,-0.78722 -0.8133,-1.77824 -0.93795,-2.20228 -0.12462,-0.42404 -0.27489,-0.76821 -0.33393,-0.7648 -0.059,0.003 -1.0053,1.16276 -2.10281,2.57639 -4.48344,5.77476 -7.69646,9.42191 -10.42674,11.83558 -3.80648,3.36508 -7.00858,5.21904 -10.31182,5.97034 -1.57638,0.35855 -4.44131,0.35798 -5.92701,-0.002 z m 43.01757,-14.103 c 3.05925,-2.27499 6.11655,-6.46171 8.89432,-12.18005 l 1.2337,-2.5397 0.003,-5.40093 0.003,-5.40095 -0.47756,0.10452 c -0.60655,0.13277 -3.04566,0.15976 -3.17032,0.0351 -0.0516,-0.0516 0.2358,-0.74961 0.63873,-1.55103 2.27078,-4.51633 4.88659,-12.16024 6.18327,-18.0686 0.90569,-4.12685 1.06178,-5.21083 1.2034,-8.35775 0.18634,-4.14072 -0.33591,-6.306 -1.85976,-7.71064 -1.65966,-1.52982 -2.18842,-1.3729 -5.04353,1.49679 -3.65852,3.67718 -6.0382,7.20377 -9.8239,14.55856 -3.67396,7.13767 -5.24157,11.25012 -6.22351,16.32661 -1.76131,9.10572 -1.64307,14.89101 0.43411,21.23996 1.16248,3.55309 2.57467,5.82504 4.42943,7.12608 1.91707,1.34476 2.17029,1.36757 3.57625,0.32203 z m 57.02334,-41.86421 c 1.81958,-7.83698 2.10791,-13.96853 0.89025,-18.93286 -0.19577,-0.79819 -0.81789,-2.39003 -1.3825,-3.53743 -0.9144,-1.8583 -1.20594,-2.26492 -2.66893,-3.72252 -1.08935,-1.08532 -2.07001,-1.86853 -2.91225,-2.32588 l -1.26985,-0.68954 -0.51897,0.60252 c -0.71263,0.82737 -1.63892,2.82102 -2.21849,4.77487 -0.65606,2.21175 -0.79416,5.33047 -0.34734,7.8436 0.83863,4.71678 3.20861,9.8679 8.40577,18.26973 l 1.01338,1.63824 0.23842,-0.8145 c 0.13112,-0.44797 0.47785,-1.84578 0.77051,-3.10623 z M 325.54304,61.5914 C 325.34349,61.48722 324.6088,60.32754 323.91038,59.01434 314.359,41.05534 300.50529,26.71045 283.36596,17.0324 265.79909,7.11293 244.8924,2.37666 223.86454,3.55273 c -15.25008,0.85293 -30.26586,4.04767 -45.62382,9.70685 -23.16284,8.53518 -37.96785,18.19965 -46.5979,30.41834 -0.73027,1.03393 -0.999,1.26758 -1.80459,1.56899 -1.92099,0.71873 -4.08129,0.66824 -4.37697,-0.10232 -0.24881,-0.64837 3.45947,-5.40775 6.94238,-8.91018 5.47547,-5.50616 12.05604,-10.2917 20.62154,-14.99644 32.13814,-17.65242 68.43414,-24.681881 100.13655,-19.39349 29.96431,4.99845 54.16803,20.66265 70.75092,45.78869 2.88652,4.37363 6.63887,10.8538 6.92288,11.95558 0.15784,0.61241 -0.0972,0.93594 -1.21897,1.54612 -0.78513,0.42707 -1.24417,0.54236 -2.34353,0.58853 -0.75195,0.0316 -1.53044,-0.0278 -1.72999,-0.132 z"
       style="fill:#fffffb;fill-opacity:1;stroke-width:0.181407" />
    <path
       id="path927"
       d="m 250.01252,167.2445 c 0,0 1.18907,1.73923 1.503,2.166 0.31392,0.42676 -1.12094,1.10481 -1.12094,1.10481 l -1.67992,-2.41072 z"
       style="fill:none;stroke:none;stroke-width:1px;stroke-linecap:butt;stroke-linejoin:miter;stroke-opacity:1" />
    <path
       id="path953"
       d="m 177.94622,115.04043 c 0,0 1.55238,0.83192 2.88153,3.60306 1.32915,2.77114 -2.79355,0.10884 -2.79355,0.10884 z"
       style="fill:none;stroke:none;stroke-width:1px;stroke-linecap:butt;stroke-linejoin:miter;stroke-opacity:1" />
  </g>
  <g
     inkscape:label="freehand"
     id="layer2"
     inkscape:groupmode="layer" />
</svg>
