<?xml version="1.0" encoding="UTF-8" standalone="no"?>
<svg
   xmlns:dc="http://purl.org/dc/elements/1.1/"
   xmlns:cc="http://creativecommons.org/ns#"
   xmlns:rdf="http://www.w3.org/1999/02/22-rdf-syntax-ns#"
   xmlns:svg="http://www.w3.org/2000/svg"
   xmlns="http://www.w3.org/2000/svg"
   xmlns:sodipodi="http://sodipodi.sourceforge.net/DTD/sodipodi-0.dtd"
   xmlns:inkscape="http://www.inkscape.org/namespaces/inkscape"
   sodipodi:docname="FrancasQuickLogo.svg"
   inkscape:version="1.0rc1 (09960d6f05, 2020-04-09)"
   id="svg8"
   version="1.1"
   viewBox="0 0 210 297"
   height="297mm"
   width="210mm">
  <defs
     id="defs2" />
  <sodipodi:namedview
     inkscape:window-maximized="1"
     inkscape:window-y="0"
     inkscape:window-x="0"
     inkscape:window-height="1387"
     inkscape:window-width="2560"
     showgrid="false"
     inkscape:document-rotation="0"
     inkscape:current-layer="layer1"
     inkscape:document-units="mm"
     inkscape:cy="673.90117"
     inkscape:cx="225.03131"
     inkscape:zoom="0.7"
     inkscape:pageshadow="2"
     inkscape:pageopacity="0.0"
     borderopacity="1.0"
     bordercolor="#666666"
     pagecolor="#ffffff"
     id="base" />
  <metadata
     id="metadata5">
    <rdf:RDF>
      <cc:Work
         rdf:about="">
        <dc:format>image/svg+xml</dc:format>
        <dc:type
           rdf:resource="http://purl.org/dc/dcmitype/StillImage" />
        <dc:title></dc:title>
      </cc:Work>
    </rdf:RDF>
  </metadata>
  <g
     id="layer1"
     inkscape:groupmode="layer"
     inkscape:label="Layer 1">
    <text
       id="text16"
       y="137.48836"
       x="29.88838"
       style="font-style:normal;font-variant:normal;font-weight:normal;font-stretch:normal;font-size:31.9297px;line-height:1.25;font-family:Z003;-inkscape-font-specification:Z003;letter-spacing:7.48353px;fill:#000000;fill-opacity:1;stroke:none;stroke-width:1.71497"
       xml:space="preserve"><tspan
         style="font-style:normal;font-variant:normal;font-weight:normal;font-stretch:normal;font-family:Z003;-inkscape-font-specification:Z003;stroke-width:1.71497"
         y="137.48836"
         x="29.88838"
         id="tspan14"
         sodipodi:role="line">Francas</tspan></text>
    <path
       inkscape:connector-curvature="0"
       id="path18"
       d="m 47.156705,110.49144 c 0,0 51.012955,-53.132561 104.145525,0"
       style="fill:none;stroke:#000000;stroke-width:3.96875;stroke-linecap:round;stroke-linejoin:miter;stroke-opacity:1;fill-opacity:1;stroke-miterlimit:4;stroke-dasharray:none" />
    <path
       style="fill:none;fill-opacity:1;stroke:#000000;stroke-width:3.96875;stroke-linecap:round;stroke-linejoin:miter;stroke-miterlimit:4;stroke-dasharray:none;stroke-opacity:1"
       d="m 151.30223,146.72265 c 0,0 -51.01296,53.13263 -104.145525,0"
       id="path18-3"
       inkscape:connector-curvature="0" />
    <g
       style="font-style:normal;font-weight:normal;font-size:12.08px;line-height:1.25;font-family:sans-serif;word-spacing:0px;fill:#000000;fill-opacity:1;stroke:none;stroke-width:0.302"
       id="text878"
       transform="rotate(58.040952,153.81271,237.89846)"
       aria-label="Fish &amp; Chips">
      <path
         inkscape:connector-curvature="0"
         id="path912"
         style="stroke-width:0.302"
         d="m 51.241894,274.17303 4.306079,-2.65894 0.526831,0.85318 -3.292294,2.03295 1.36356,2.20824 2.971095,-1.8346 0.52683,0.85318 -2.971095,1.83461 2.209588,3.57836 -1.013785,0.626 z" />
      <path
         inkscape:connector-curvature="0"
         id="path914"
         style="stroke-width:0.302"
         d="m 57.074311,273.02897 0.881888,-0.6326 3.850582,5.36801 -0.881887,0.6326 z m -1.498977,-2.08969 0.881888,-0.6326 0.801059,1.11674 -0.881888,0.63259 z" />
      <path
         inkscape:connector-curvature="0"
         id="path916"
         style="stroke-width:0.302"
         d="m 62.775441,268.79416 0.656173,0.78917 q -0.504609,0.11273 -0.961009,0.33879 -0.456399,0.22607 -0.86459,0.56547 -0.621356,0.51664 -0.775915,0.96734 -0.150024,0.44692 0.16675,0.8279 0.241351,0.29027 0.603119,0.27329 0.357997,-0.0215 1.15369,-0.42996 l 0.338529,-0.17408 q 1.047334,-0.54865 1.709616,-0.50865 0.663047,0.0317 1.179689,0.65304 0.588294,0.70753 0.36907,1.58788 -0.214689,0.87657 -1.194346,1.69113 -0.40819,0.3394 -0.920544,0.62733 -0.504047,0.2887 -1.125864,0.53724 l -0.716511,-0.86174 q 0.662484,-0.14427 1.213313,-0.39516 0.547059,-0.25542 0.986997,-0.62121 0.589608,-0.49025 0.74116,-0.95379 0.147781,-0.46807 -0.157679,-0.83544 -0.282833,-0.34016 -0.664985,-0.32925 -0.377617,0.007 -1.29271,0.48419 l -0.346835,0.17332 q -0.911321,0.48158 -1.535078,0.43256 -0.627527,-0.0536 -1.117772,-0.64316 -0.595835,-0.7166 -0.412181,-1.52901 0.183654,-0.81242 1.117956,-1.58927 0.462616,-0.38465 0.927373,-0.65602 0.464757,-0.27137 0.922584,-0.42191 z" />
      <path
         inkscape:connector-curvature="0"
         id="path918"
         style="stroke-width:0.302"
         d="m 69.407729,265.61356 2.852945,2.78561 -0.758213,0.77654 -2.827623,-2.76088 q -0.671033,-0.6552 -1.259924,-0.71908 -0.588891,-0.0639 -1.099861,0.45945 -0.613987,0.62883 -0.567438,1.38325 0.04655,0.75441 0.738685,1.43021 l 2.67147,2.60842 -0.762333,0.78076 -6.566839,-6.41184 0.762334,-0.78077 2.574403,2.51365 q -0.154286,-0.69474 0.0014,-1.27639 0.159848,-0.58586 0.641973,-1.07964 0.795299,-0.81452 1.709691,-0.73785 0.910171,0.0726 1.889288,1.02856 z" />
      <path
         inkscape:connector-curvature="0"
         id="path920"
         style="stroke-width:0.302"
         d="m 73.166335,259.64361 q 0.09874,0.71178 0.354875,1.18821 0.254513,0.46826 0.685972,0.75682 0.71583,0.47875 1.539004,0.27711 0.823173,-0.20163 1.347833,-0.98611 0.311517,-0.46578 0.431693,-0.97437 0.115273,-0.51188 0.04086,-1.07966 z m -0.08677,-1.05858 4.215329,-0.78555 q -0.242894,-0.58112 -0.629881,-1.07411 -0.39189,-0.49626 -0.931151,-0.8995 l 0.609917,-0.91195 q 0.60784,0.49168 1.069806,1.16964 0.461966,0.67796 0.774778,1.5471 l 2.312217,-0.43337 -0.82634,1.23554 -1.189648,0.2191 q 0.09533,0.80174 -0.06276,1.50496 -0.162993,0.69994 -0.592559,1.34223 -0.790269,1.18161 -1.963679,1.48252 -1.178313,0.29763 -2.232447,-0.40738 -0.627577,-0.41973 -0.957006,-1.11549 -0.334332,-0.69904 -0.380321,-1.68067 -0.466284,0.0288 -0.852244,-0.052 -0.390864,-0.084 -0.685041,-0.28076 -0.794278,-0.53122 -0.910784,-1.3968 -0.121409,-0.86886 0.48195,-1.77101 0.272168,-0.40694 0.629309,-0.74996 0.360421,-0.34792 0.815653,-0.64662 l 0.892336,0.5968 q -0.515722,0.27244 -0.892444,0.58107 -0.381625,0.30536 -0.604605,0.63876 -0.344308,0.51481 -0.286166,1.02203 0.05652,0.49905 0.487979,0.78761 0.25005,0.16724 0.600098,0.19556 0.348424,0.0202 1.107702,-0.11778 z" />
      <path
         inkscape:connector-curvature="0"
         id="path922"
         style="stroke-width:0.302"
         d="m 78.05323,243.13303 1.156694,0.49042 q -0.750748,0.33518 -1.273067,0.8569 -0.520017,0.51629 -0.819337,1.22225 -0.589432,1.39021 -0.04998,2.49024 0.534021,1.09773 2.141445,1.77926 1.601994,0.67923 2.767717,0.30217 1.160291,-0.37936 1.749723,-1.76956 0.299321,-0.70597 0.308872,-1.43869 0.01185,-0.73815 -0.269192,-1.5108 l 1.145834,0.48582 q 0.146933,0.74141 0.06844,1.47053 -0.07619,0.72369 -0.380119,1.44051 -0.780537,1.84094 -2.353629,2.42327 -1.578523,0.58003 -3.528068,-0.24655 -1.954976,-0.82889 -2.630106,-2.36445 -0.680561,-1.53785 0.09998,-3.37879 0.30853,-0.72769 0.775719,-1.28559 0.464061,-0.56565 1.089082,-0.96694 z" />
      <path
         inkscape:connector-curvature="0"
         id="path924"
         style="stroke-width:0.302"
         d="m 83.794472,238.20724 3.828941,1.11271 -0.302868,1.0422 -3.794956,-1.10283 q -0.900594,-0.26172 -1.450112,-0.0406 -0.549519,0.22114 -0.753625,0.92349 -0.245257,0.84395 0.151276,1.48744 0.396533,0.64348 1.325447,0.91343 l 3.585384,1.04193 -0.304514,1.04786 -8.81336,-2.56121 0.304514,-1.04786 3.455109,1.00407 q -0.463438,-0.54008 -0.600148,-1.12648 -0.135064,-0.59207 0.05752,-1.25477 0.317682,-1.09318 1.160331,-1.4564 0.836986,-0.36487 2.15106,0.017 z" />
      <path
         inkscape:connector-curvature="0"
         id="path926"
         style="stroke-width:0.302"
         d="m 81.582621,235.87015 0.217713,-1.06325 6.471967,1.32521 -0.217713,1.06325 z m -2.519444,-0.51588 0.217713,-1.06326 1.346401,0.2757 -0.217714,1.06325 z" />
      <path
         inkscape:connector-curvature="0"
         id="path928"
         style="stroke-width:0.302"
         d="m 87.866563,232.74181 3.478095,0.42258 -0.131611,1.08325 -9.052416,-1.09984 0.131611,-1.08325 0.995414,0.12094 q -0.544276,-0.41075 -0.76273,-0.96017 -0.223599,-0.55599 -0.136096,-1.2762 0.145128,-1.1945 1.184048,-1.82288 1.039631,-0.63424 2.585451,-0.44643 1.54582,0.18781 2.403332,1.05255 0.858222,0.85888 0.713095,2.05338 -0.0875,0.72021 -0.431876,1.20719 -0.349518,0.48041 -0.976317,0.74888 z m -1.844113,-3.94362 q -1.188641,-0.14442 -1.921768,0.26562 -0.738271,0.40347 -0.842137,1.25836 -0.103865,0.85488 0.515601,1.42926 0.614322,0.56781 1.802963,0.71222 1.188642,0.14442 1.926913,-0.25905 0.733127,-0.41004 0.836992,-1.26493 0.103866,-0.85488 -0.510456,-1.42269 -0.619466,-0.57438 -1.808108,-0.71879 z" />
      <path
         inkscape:connector-curvature="0"
         id="path930"
         style="stroke-width:0.302"
         d="m 83.162003,221.94917 1.026163,0.0184 q -0.244146,0.45577 -0.370977,0.94905 -0.12683,0.49327 -0.136345,1.02405 -0.01448,0.80795 0.225916,1.21932 0.240506,0.40547 0.735895,0.41435 0.377439,0.007 0.600827,-0.2783 0.21749,-0.28517 0.427753,-1.15451 l 0.08923,-0.37006 q 0.268416,-1.15147 0.731192,-1.62692 0.456984,-0.48146 1.26494,-0.46697 0.920008,0.0165 1.443571,0.7574 0.523667,0.73501 0.500831,2.00887 -0.0095,0.53077 -0.12603,1.10682 -0.110512,0.57026 -0.328342,1.20349 l -1.120524,-0.0201 q 0.323351,-0.59594 0.49305,-1.17693 0.163801,-0.58111 0.174056,-1.15316 0.01374,-0.76668 -0.238345,-1.18415 -0.257987,-0.41759 -0.735684,-0.42615 -0.442311,-0.008 -0.683603,0.28862 -0.241185,0.29064 -0.477471,1.2952 l -0.09523,0.37585 q -0.230388,1.00467 -0.674838,1.44505 -0.450346,0.44028 -1.21702,0.42654 -0.931803,-0.0167 -1.427147,-0.68631 -0.495343,-0.66962 -0.473564,-1.8845 0.01078,-0.60154 0.108761,-1.13073 0.09798,-0.52919 0.282937,-0.97423 z" />
    </g>
  </g>
</svg>
