<svg xmlns="http://www.w3.org/2000/svg" viewBox="0 0 235.25 190.98"><defs><style>.cls-1{fill:none;stroke:#020202;stroke-linecap:round;stroke-miterlimit:10;stroke-width:3px;}</style></defs><title>Asset 1</title><g id="Layer_2" data-name="Layer 2"><g id="FrancaWord"><path class="cls-1" d="M112.56,77.31s-16.67,11.17-25,25.17,7.63,12.57,14.16,4.83"/><path class="cls-1" d="M112.56,77.31c-2,1.65-22.77,10.63-24,9.67s-.54-3.07,1.48-4.71,4.64-2.21,5.84-1.26-2.67,6.16-4.69,7.8c0,0-16.5,11.67-47,5.34"/><ellipse class="cls-1" cx="120.18" cy="94.11" rx="19.92" ry="6.99" transform="translate(-27.89 131.2) rotate(-52.13)"/><path class="cls-1" d="M136.74,81.33l-9.75,17c-2.6,6.69-3.73,11,4.39,3"/><ellipse class="cls-1" cx="191.55" cy="93.7" rx="19.92" ry="6.99" transform="translate(-0.01 187.39) rotate(-52.13)"/><path class="cls-1" d="M180.49,89.82c2.31-4.9,2.85-8.87,1-10.27-2.88-2.25-10.69,3-17.45,11.66s-9.89,17.54-7,19.78c2.41,1.88,16.87-5.29,22.69-11.54"/><path class="cls-1" d="M208.11,80.92l-9.74,17c-2.6,6.69-3.73,11,4.39,3"/><line class="cls-1" x1="147.78" y1="77.98" x2="129.74" y2="109.48"/><path class="cls-1" d="M137.06,96.69s8.88-10.1,12.88-12.54,10-3.78,0,11.88c0,0-15.65,24.08,3.4,9.66"/><path class="cls-1" d="M202.85,101.31c6.94,4,13.82-3,24.78-11.46s-.84-10.58-10.43-7.41-3.41,5.5-3.41,5.5,2.59,1.33,10.09,4.5S229,103.85,217,104.69s-6.28-12.29-6.28-12.29"/><path class="cls-1" d="M89.59,40.14,42,123.45s-34.67,63.36-40.45,66"/><path class="cls-1" d="M89.59,40.14c9.1-18.62,31.8-42,45.76-38.24,14.11,3.79,19,17.35,9.88,36S109.06,68.06,94.5,66.81c0,0-25.67.23-50.28-12.66"/></g><g id="CircleOutline"><path class="cls-1" d="M60.15,123.18c13,32.87,47,56.33,86.91,56.33,35.39,0,66.14-18.45,81.72-45.55"/><path class="cls-1" d="M159.72,7.51c33,4,60.67,22,74,46.69"/></g></g></svg>