<svg xmlns="http://www.w3.org/2000/svg" viewBox="0 0 212.66 183.05"><defs><style>.cls-1,.cls-2{fill:none;stroke:#020202;stroke-linecap:round;stroke-width:3px;}.cls-1{stroke-linejoin:round;}.cls-2{stroke-miterlimit:10;}.cls-3{font-size:18px;font-family:Tahoma;}</style></defs><title>francas-logoAsset 3</title><g id="Layer_2" data-name="Layer 2"><g id="WritingUnder"><path class="cls-1" d="M77.37,106c-4,8.41-23.78,12-15.44-2s25-25.17,25-25.17-18.89,6-20.31,4-.08,20.38-48,13.18"/><ellipse class="cls-2" cx="90.55" cy="95.66" rx="19.92" ry="6.99" transform="translate(-40.55 108.41) rotate(-52.13)"/><path class="cls-2" d="M108.11,82.88l-9.75,17c-2.6,6.69-1.63,12.44,6.49,4.38"/><ellipse class="cls-2" cx="162.93" cy="100.25" rx="19.92" ry="6.99" transform="translate(-16.23 167.32) rotate(-52.13)"/><path class="cls-2" d="M151.1,106.42c-7,5.5-18.23,13-20.64,11.12-2.89-2.24,1.73-10.13,7-19.78,5.72-10.46,9.4-15.83,12.69-14.25,1.39.67,1.36,4.37-.81,7.69"/><path class="cls-2" d="M179.48,87.47l-9.74,17c-2.6,6.69-4.51,11,3.8,3.66"/><line class="cls-2" x1="119.15" y1="79.53" x2="101.11" y2="111.03"/><path class="cls-2" d="M130.6,106.17c-18.42,7.69-5.42-8.48-5.42-8.48,10.5-15.83-.88-16.85-4.88-14.41s-8.58,9.23-8.58,9.23"/><line class="cls-2" x1="69.96" y1="41.69" x2="23.71" y2="122.57"/><path class="cls-2" d="M19.26,68c5.33,4.67,35.41,5.28,39.5,5.34,12.54.17,36.49-6.56,51.35-35.94,7.78-15.36,12.67-32.79.46-35.67C97.58-1.3,81.29,23.21,70,41.69"/><path class="cls-2" d="M172.38,118.39c19.3-3,27.34-11.12,26.24-18.29s-9.57-7-12.64-9.27,7.39-11.1,8.21-5.81-20.4,22.58-20.65,23.13"/><path class="cls-2" d="M9.75,102.91A37.51,37.51,0,0,1,6,86.68c0-20.39,17.28-38.4,43.7-49.25"/><path class="cls-2" d="M193,124.92c-18.3,16.14-49.53,26.78-85,26.78-27.26,0-52-6.29-70.32-16.52"/><path class="cls-2" d="M127.4,32.74c26.5,3,49.35,12,64.27,24.54"/><text class="cls-3" transform="translate(31.13 158.41) rotate(25.43)">F</text><text class="cls-3" transform="matrix(0.93, 0.38, -0.38, 0.93, 40.19, 162.62)">i</text><text class="cls-3" transform="translate(44.45 164.41) rotate(19.69)">s</text><text class="cls-3" transform="translate(52.67 167.35) rotate(16.02)">h</text><text class="cls-3" transform="matrix(0.97, 0.23, -0.23, 0.97, 62.89, 170.21)"> </text><text class="cls-3" transform="translate(68.95 171.69) rotate(9.82)">&amp;</text><text class="cls-3" transform="translate(81.48 173.75) rotate(6.75)"> </text><text class="cls-3" transform="translate(87.6 174.52) rotate(4.01)">C</text><text class="cls-3" transform="translate(99.04 175.29) rotate(0.62)">h</text><text class="cls-3" transform="translate(109.5 175.34) rotate(-1.64)">i</text><text class="cls-3" transform="translate(114.07 175.26) rotate(-3.93)">p</text><text class="cls-3" transform="matrix(0.99, -0.12, 0.12, 0.99, 124.55, 174.5)">s</text></g></g></svg>